<svg width="448" height="101" viewBox="0 0 448 101" fill="none" xmlns="http://www.w3.org/2000/svg">
<path d="M17.262 31.352C17.262 33.872 16.436 35.93 14.784 37.526C13.16 39.122 11.074 39.92 8.526 39.92C5.698 39.92 3.458 39.388 1.806 38.324L2.814 35.636C4.27 36.532 5.95 36.98 7.854 36.98C9.506 36.98 10.822 36.49 11.802 35.51C12.782 34.53 13.272 33.214 13.272 31.562C13.272 30.274 12.88 29.21 12.096 28.37C11.34 27.53 10.052 26.746 8.232 26.018C4.144 24.394 2.1 21.818 2.1 18.29C2.1 16.022 2.842 14.104 4.326 12.536C5.838 10.968 7.812 10.184 10.248 10.184C12.712 10.184 14.686 10.702 16.17 11.738L15.246 14.174C13.818 13.278 12.292 12.83 10.668 12.83C9.156 12.83 7.98 13.292 7.14 14.216C6.3 15.112 5.88 16.344 5.88 17.912C5.88 19.284 6.356 20.404 7.308 21.272C8.008 21.944 9.142 22.588 10.71 23.204C15.078 24.912 17.262 27.628 17.262 31.352ZM38.5074 38.156C36.4074 39.36 33.7474 39.962 30.5274 39.962C25.1794 39.962 22.5054 37.498 22.5054 32.57V16.862H26.2014V32.696C26.2014 34.096 26.5654 35.202 27.2934 36.014C28.1054 36.91 29.2534 37.358 30.7374 37.358C32.4174 37.358 33.7754 37.05 34.8114 36.434V16.862H38.5074V38.156ZM73.6378 39.5H69.9418V23.204C69.9418 20.32 68.4858 18.878 65.5738 18.878C63.7258 18.878 62.1718 19.55 60.9118 20.894V39.5H57.2158V23.036C57.2158 21.748 56.7818 20.726 55.9138 19.97C55.0738 19.214 53.8558 18.836 52.2598 18.836C50.7758 18.836 49.4178 19.088 48.1858 19.592V39.5H44.4898V18.038C46.6738 16.974 49.2918 16.442 52.3438 16.442C55.5078 16.442 57.8178 17.352 59.2738 19.172C61.0098 17.352 63.3478 16.442 66.2878 16.442C68.7798 16.442 70.6838 17.156 71.9998 18.584C73.0918 19.788 73.6378 21.3 73.6378 23.12V39.5ZM108.747 39.5H105.051V23.204C105.051 20.32 103.595 18.878 100.683 18.878C98.8352 18.878 97.2812 19.55 96.0212 20.894V39.5H92.3252V23.036C92.3252 21.748 91.8912 20.726 91.0232 19.97C90.1832 19.214 88.9652 18.836 87.3692 18.836C85.8852 18.836 84.5272 19.088 83.2952 19.592V39.5H79.5992V18.038C81.7832 16.974 84.4012 16.442 87.4532 16.442C90.6172 16.442 92.9272 17.352 94.3832 19.172C96.1192 17.352 98.4572 16.442 101.397 16.442C103.889 16.442 105.793 17.156 107.109 18.584C108.201 19.788 108.747 21.3 108.747 23.12V39.5ZM129.703 38.324C127.799 39.388 125.293 39.92 122.185 39.92C116.445 39.92 113.575 37.694 113.575 33.242C113.575 30.47 114.807 28.398 117.271 27.026C119.231 25.934 122.213 25.178 126.217 24.758V23.372C126.217 20.376 124.551 18.878 121.219 18.878C119.483 18.878 117.663 19.354 115.759 20.306L114.877 18.122C116.921 17.002 119.231 16.442 121.807 16.442C127.071 16.442 129.703 18.892 129.703 23.792V38.324ZM126.217 37.022V26.648C123.053 27.04 120.827 27.642 119.539 28.454C117.915 29.462 117.103 31.03 117.103 33.158C117.103 36.238 118.895 37.778 122.479 37.778C124.047 37.778 125.293 37.526 126.217 37.022ZM145.412 16.484L144.53 19.298C143.802 19.074 143.06 18.962 142.304 18.962C141.1 18.962 140.12 19.214 139.364 19.718V39.5H135.668V18.08C137.964 16.904 141.212 16.372 145.412 16.484ZM165.512 27.53L151.274 29.588C151.694 34.684 153.99 37.232 158.162 37.232C160.374 37.232 162.236 36.798 163.748 35.93L164.714 38.366C163.006 39.402 160.724 39.92 157.868 39.92C154.788 39.92 152.366 38.954 150.602 37.022C148.726 34.978 147.788 32.01 147.788 28.118C147.788 24.366 148.642 21.454 150.35 19.382C151.974 17.422 154.158 16.442 156.902 16.442C162.726 16.442 165.596 20.138 165.512 27.53ZM161.984 25.976C161.984 21.216 160.248 18.836 156.775 18.836C155.04 18.836 153.682 19.536 152.702 20.936C151.638 22.448 151.12 24.674 151.148 27.614L161.984 25.976ZM183.423 38.408C182.303 39.416 180.609 39.92 178.341 39.92C175.821 39.92 173.749 38.856 172.125 36.728C170.529 34.6 169.731 31.744 169.731 28.16C169.731 24.52 170.557 21.636 172.209 19.508C173.777 17.464 175.849 16.442 178.425 16.442C180.609 16.442 182.275 16.946 183.423 17.954L182.541 20.096C181.561 19.368 180.441 19.004 179.181 19.004C175.373 19.004 173.469 22.014 173.469 28.034C173.469 30.806 173.945 33.004 174.897 34.628C175.877 36.336 177.263 37.19 179.055 37.19C180.315 37.19 181.463 36.826 182.499 36.098L183.423 38.408ZM203.86 28.202C203.86 31.702 203.16 34.488 201.76 36.56C200.22 38.8 197.98 39.92 195.04 39.92C192.1 39.92 189.846 38.8 188.278 36.56C186.878 34.488 186.178 31.702 186.178 28.202C186.178 24.646 186.892 21.846 188.32 19.802C189.86 17.562 192.086 16.442 194.998 16.442C197.966 16.442 200.22 17.562 201.76 19.802C203.16 21.818 203.86 24.618 203.86 28.202ZM200.164 28.202C200.164 21.93 198.456 18.794 195.04 18.794C191.596 18.794 189.874 21.93 189.874 28.202C189.874 34.306 191.596 37.358 195.04 37.358C198.456 37.358 200.164 34.306 200.164 28.202ZM225.384 39.5H221.688V23.246C221.688 20.306 220.106 18.836 216.942 18.836C215.318 18.836 213.89 19.102 212.658 19.634V39.5H208.962V18.038C211.174 16.974 213.932 16.442 217.236 16.442C220.12 16.442 222.262 17.156 223.662 18.584C224.81 19.76 225.384 21.286 225.384 23.162V39.5Z" fill="#1E1E1E"/>
<mask id="mask0_178_305" style="mask-type:alpha" maskUnits="userSpaceOnUse" x="0" y="50" width="50" height="51">
<rect y="50.5" width="50" height="50" fill="#D9D9D9"/>
</mask>
<g mask="url(#mask0_178_305)">
<path d="M4.16748 65.0833V54.6667H14.5842V58.8333H8.33415V65.0833H4.16748ZM4.16748 96.3334V85.9167H8.33415V92.1667H14.5842V96.3334H4.16748ZM35.4175 96.3334V92.1667H41.6675V85.9167H45.8342V96.3334H35.4175ZM41.6675 65.0833V58.8333H35.4175V54.6667H45.8342V65.0833H41.6675ZM36.4592 86.9583H39.5842V90.0834H36.4592V86.9583ZM36.4592 80.7083H39.5842V83.8333H36.4592V80.7083ZM33.3342 83.8333H36.4592V86.9583H33.3342V83.8333ZM30.2092 86.9583H33.3342V90.0834H30.2092V86.9583ZM27.0842 83.8333H30.2092V86.9583H27.0842V83.8333ZM33.3342 77.5833H36.4592V80.7083H33.3342V77.5833ZM30.2092 80.7083H33.3342V83.8333H30.2092V80.7083ZM27.0842 77.5833H30.2092V80.7083H27.0842V77.5833ZM39.5842 60.9167V73.4167H27.0842V60.9167H39.5842ZM22.9175 77.5833V90.0834H10.4175V77.5833H22.9175ZM22.9175 60.9167V73.4167H10.4175V60.9167H22.9175ZM19.7925 86.9583V80.7083H13.5425V86.9583H19.7925ZM19.7925 70.2917V64.0417H13.5425V70.2917H19.7925ZM36.4592 70.2917V64.0417H30.2092V70.2917H36.4592Z" fill="#1C1B1F"/>
</g>
<path d="M88.8694 81.352C88.8694 83.872 88.0434 85.93 86.3914 87.526C84.7674 89.122 82.6814 89.92 80.1334 89.92C77.3054 89.92 75.0654 89.388 73.4134 88.324L74.4214 85.636C75.8774 86.532 77.5574 86.98 79.4614 86.98C81.1134 86.98 82.4294 86.49 83.4094 85.51C84.3894 84.53 84.8794 83.214 84.8794 81.562C84.8794 80.274 84.4874 79.21 83.7034 78.37C82.9474 77.53 81.6594 76.746 79.8394 76.018C75.7514 74.394 73.7074 71.818 73.7074 68.29C73.7074 66.022 74.4494 64.104 75.9334 62.536C77.4454 60.968 79.4194 60.184 81.8554 60.184C84.3194 60.184 86.2934 60.702 87.7774 61.738L86.8534 64.174C85.4254 63.278 83.8994 62.83 82.2754 62.83C80.7634 62.83 79.5874 63.292 78.7474 64.216C77.9074 65.112 77.4874 66.344 77.4874 67.912C77.4874 69.284 77.9634 70.404 78.9154 71.272C79.6154 71.944 80.7494 72.588 82.3174 73.204C86.6854 74.912 88.8694 77.628 88.8694 81.352ZM106.923 88.408C105.803 89.416 104.109 89.92 101.841 89.92C99.3209 89.92 97.2489 88.856 95.6249 86.728C94.0289 84.6 93.2309 81.744 93.2309 78.16C93.2309 74.52 94.0569 71.636 95.7089 69.508C97.2769 67.464 99.3489 66.442 101.925 66.442C104.109 66.442 105.775 66.946 106.923 67.954L106.041 70.096C105.061 69.368 103.941 69.004 102.681 69.004C98.8729 69.004 96.9689 72.014 96.9689 78.034C96.9689 80.806 97.4449 83.004 98.3969 84.628C99.3769 86.336 100.763 87.19 102.555 87.19C103.815 87.19 104.963 86.826 105.999 86.098L106.923 88.408ZM126.374 88.324C124.47 89.388 121.964 89.92 118.856 89.92C113.116 89.92 110.246 87.694 110.246 83.242C110.246 80.47 111.478 78.398 113.942 77.026C115.902 75.934 118.884 75.178 122.888 74.758V73.372C122.888 70.376 121.222 68.878 117.89 68.878C116.154 68.878 114.334 69.354 112.43 70.306L111.548 68.122C113.592 67.002 115.902 66.442 118.478 66.442C123.742 66.442 126.374 68.892 126.374 73.792V88.324ZM122.888 87.022V76.648C119.724 77.04 117.498 77.642 116.21 78.454C114.586 79.462 113.774 81.03 113.774 83.158C113.774 86.238 115.566 87.778 119.15 87.778C120.718 87.778 121.964 87.526 122.888 87.022ZM148.761 89.5H145.065V73.246C145.065 70.306 143.483 68.836 140.319 68.836C138.695 68.836 137.267 69.102 136.035 69.634V89.5H132.339V68.038C134.551 66.974 137.309 66.442 140.613 66.442C143.497 66.442 145.639 67.156 147.039 68.584C148.187 69.76 148.761 71.286 148.761 73.162V89.5ZM171.156 89.5H167.46V73.246C167.46 70.306 165.878 68.836 162.714 68.836C161.09 68.836 159.662 69.102 158.43 69.634V89.5H154.734V68.038C156.946 66.974 159.704 66.442 163.008 66.442C165.892 66.442 168.034 67.156 169.434 68.584C170.582 69.76 171.156 71.286 171.156 73.162V89.5ZM193.97 77.53L179.732 79.588C180.152 84.684 182.448 87.232 186.62 87.232C188.832 87.232 190.694 86.798 192.206 85.93L193.172 88.366C191.464 89.402 189.182 89.92 186.326 89.92C183.246 89.92 180.824 88.954 179.06 87.022C177.184 84.978 176.246 82.01 176.246 78.118C176.246 74.366 177.1 71.454 178.808 69.382C180.432 67.422 182.616 66.442 185.36 66.442C191.184 66.442 194.054 70.138 193.97 77.53ZM190.442 75.976C190.442 71.216 188.706 68.836 185.234 68.836C183.498 68.836 182.14 69.536 181.16 70.936C180.096 72.448 179.578 74.674 179.606 77.614L190.442 75.976ZM208.816 66.484L207.934 69.298C207.206 69.074 206.464 68.962 205.708 68.962C204.504 68.962 203.524 69.214 202.768 69.718V89.5H199.072V68.08C201.368 66.904 204.616 66.372 208.816 66.484Z" fill="#1E1E1E"/>
</svg>
